<svg xmlns="http://www.w3.org/2000/svg" xmlns:xlink="http://www.w3.org/1999/xlink" width="500" zoomAndPan="magnify" viewBox="0 0 375 374.999991" height="500" preserveAspectRatio="xMidYMid meet" version="1.0"><defs><g/><clipPath id="c53423d6e9"><path d="M 110.996094 98.480469 L 263.996094 98.480469 L 263.996094 276.222656 L 110.996094 276.222656 Z M 110.996094 98.480469 " clip-rule="nonzero"/></clipPath><clipPath id="b369d13920"><path d="M 187.496094 98.480469 L 263.996094 142.917969 L 263.996094 231.789062 L 187.496094 276.222656 L 110.996094 231.789062 L 110.996094 142.917969 L 187.496094 98.480469 " clip-rule="nonzero"/></clipPath></defs><g clip-path="url(#c53423d6e9)"><g clip-path="url(#b369d13920)"><path stroke-linecap="butt" transform="matrix(0.75, 0, 0, 0.748766, 110.995771, 98.480194)" fill="none" stroke-linejoin="miter" d="M 102.000437 0.000366492 L 204.000444 59.348027 L 204.000444 178.038132 L 102.000437 237.380575 L 0.000430585 178.038132 L 0.000430585 59.348027 L 102.000437 0.000366492 " stroke="#f472b6" stroke-width="10" stroke-opacity="1" stroke-miterlimit="4"/></g></g><g fill="#f472b6" fill-opacity="1"><g transform="translate(120.275387, 223.616784)"><g><path d="M 27.265625 0 L 22.484375 0 L 22.484375 -63.34375 L 0.46875 -63.34375 L 0.46875 -67.796875 L 49.296875 -67.796875 L 49.296875 -63.34375 L 27.265625 -63.34375 Z M 27.265625 0 "/></g></g></g><g fill="#f472b6" fill-opacity="1"><g transform="translate(170.025826, 223.616784)"><g><path d="M 63.625 0 L 59.71875 0 L 44.84375 -52.3125 C 43.601562 -56.601562 42.675781 -60.125 42.0625 -62.875 C 41.5625 -60.1875 40.851562 -57.09375 39.9375 -53.59375 C 39.03125 -50.101562 34.050781 -32.238281 25 0 L 21 0 L 2.359375 -67.796875 L 7.328125 -67.796875 L 19.203125 -24.109375 C 19.660156 -22.347656 20.085938 -20.71875 20.484375 -19.21875 C 20.890625 -17.71875 21.253906 -16.3125 21.578125 -15 C 21.910156 -13.6875 22.207031 -12.414062 22.46875 -11.1875 C 22.726562 -9.96875 22.96875 -8.742188 23.1875 -7.515625 C 23.925781 -11.710938 25.503906 -18.09375 27.921875 -26.65625 L 39.515625 -67.796875 L 44.75 -67.796875 L 58.328125 -20.59375 C 59.910156 -15.144531 61.039062 -10.753906 61.71875 -7.421875 C 62.125 -9.648438 62.640625 -12.015625 63.265625 -14.515625 C 63.898438 -17.015625 68.671875 -34.773438 77.578125 -67.796875 L 82.359375 -67.796875 Z M 63.625 0 "/></g></g></g></svg>